<?xml version="1.0" standalone="no"?><!DOCTYPE svg PUBLIC "-//W3C//DTD SVG 1.1//EN" "http://www.w3.org/Graphics/SVG/1.1/DTD/svg11.dtd"><svg t="1536057985181" class="icon" style="" viewBox="0 0 1024 1024" version="1.1" xmlns="http://www.w3.org/2000/svg" p-id="763" xmlns:xlink="http://www.w3.org/1999/xlink" width="200" height="200"><defs><style type="text/css"></style></defs><path d="M384 320h512c17.696 0 32-14.336 32-32s-14.304-32-32-32H384c-17.664 0-32 14.336-32 32s14.336 32 32 32zM896 480H384c-17.664 0-32 14.336-32 32s14.336 32 32 32h512c17.696 0 32-14.336 32-32s-14.304-32-32-32zM896 704H384c-17.664 0-32 14.304-32 32s14.336 32 32 32h512c17.696 0 32-14.304 32-32s-14.304-32-32-32zM128 288a2 2 0 1 0 128 0 2 2 0 1 0-128 0zM128 512a2 2 0 1 0 128 0 2 2 0 1 0-128 0zM128 736a2 2 0 1 0 128 0 2 2 0 1 0-128 0z" fill="" p-id="764"></path></svg>